<svg xmlns="http://www.w3.org/2000/svg" xmlns:xlink="http://www.w3.org/1999/xlink" x="0" y="0" enable-background="new 0 0 192 192" version="1.1" viewBox="0 0 192 192" xml:space="preserve"><style type="text/css">.st0{fill:#ea4335}.st1{fill:#4285f4}.st2{fill:#fbbc05}.st3{fill:#34a853}.st4,.st5{opacity:.2;fill:#212121}.st5{fill:#fff}.st6{fill:url(#Finish_2_)}.st7{display:none;fill:#212121}.st8{fill:url(#Finish_3_)}</style><radialGradient id="SVGID_1_" cx="0" cy="0" r="1" gradientUnits="userSpaceOnUse"><stop offset="0" stop-color="#FFF" stop-opacity=".1"/><stop offset="1" stop-color="#FFF" stop-opacity="0"/></radialGradient><radialGradient id="SVGID_2_" cx="0" cy="0" r="1" gradientUnits="userSpaceOnUse"><stop offset="0" stop-color="#FFF" stop-opacity=".1"/><stop offset="1" stop-color="#FFF" stop-opacity="0"/></radialGradient><g id="Icon"><g id="Colored"><path d="M36.889,36.889L24.946,24.946C27.995,21.894,32.21,20,36.889,20H96v16.889H36.889z M112.889,20v16.889h30.28 L106.918,73.14l5.971,5.971L172,20H112.889z" class="st0"/><path d="M167.039,167.039l-11.928-11.928V96H172v59.111C172,159.755,170.1,163.978,167.039,167.039z M141.975,135.407 L112.42,96l-7.175,9.245l30.162,30.162H141.975z M172,79.111V20l-59.111,59.111l5.971,5.971l36.251-36.251v30.28H172z" class="st1"/><path d="M36.889,155.111l-11.943,11.943c-3.06-3.062-4.946-7.29-4.946-11.943V36.889 c0-4.653,1.886-8.881,4.946-11.943l11.943,11.943V155.111z M73.012,105.852l-22.988,29.556h6.568l22.38-22.38L73.012,105.852z" class="st2"/><path d="M36.889,155.111h118.222l11.928,11.928c-3.061,3.061-7.283,4.961-11.928,4.961H36.889 c-4.678,0-8.893-1.894-11.943-4.946L36.889,155.111z M78.972,113.028l-22.38,22.38h78.814l-30.162-30.162l-15.813,20.376 L78.972,113.028z" class="st3"/><path id="Shade" d="M118.86,85.082L106.918,73.14l1-1l10.942,10.942l36.251-36.251v2L118.86,85.082z M147.169,34.889 h-34.28v2h32.28L147.169,34.889z M51.583,135.407h88.894l-1.5-2H53.138L51.583,135.407z M96,34.889H36.889v2H96V34.889z M155.111,79.111H172v-2h-16.889V79.111z M155.111,170H36.889C27.516,170,20,162.4,20,153.111v2C20,164.4,27.516,172,36.889,172 h118.222C164.4,172,172,164.4,172,155.111v-2C172,162.4,164.4,170,155.111,170z" class="st4"/><path id="Tint" d="M108.918,73.14l-1-1l35.251-35.251h2L108.918,73.14z M112.42,96l-22.988,29.621l-16.42-19.769 l-22.988,29.556h1.556l21.432-27.556l16.42,19.769L112.42,98l28.056,37.407h1.5L112.42,96z M36.889,157.111h118.222v-2H36.889 V157.111z M112.889,20v2H172v-2H112.889z M36.889,22H96v-2H36.889C27.516,20,20,27.6,20,36.889v2C20,29.6,27.516,22,36.889,22z M155.111,98H172v-2h-16.889V98z" class="st5"/><radialGradient id="Finish_2_" cx="20.002" cy="20" r="214.953" gradientUnits="userSpaceOnUse"><stop offset="0" stop-color="#FFF" stop-opacity=".1"/><stop offset="1" stop-color="#FFF" stop-opacity="0"/></radialGradient><path id="Finish" d="M89.432,125.621L112.42,96l29.556,39.407H50.025l22.988-29.556L89.432,125.621z M155.111,155.111 H36.889V36.889H96V20H36.889C27.516,20,20,27.6,20,36.889v118.222C20,164.4,27.516,172,36.889,172h118.222 C164.4,172,172,164.4,172,155.111V96h-16.889V155.111z M112.889,20v16.889h30.28L106.918,73.14l11.942,11.942l36.251-36.251v30.28 H172V20H112.889z" class="st6"/></g><path id="Monochrome_1_" d="M89.432,125.621L112.42,96l29.556,39.407H50.025l22.988-29.556L89.432,125.621z M155.111,155.111H36.889V36.889H96V20H36.889C27.516,20,20,27.6,20,36.889v118.222C20,164.4,27.516,172,36.889,172h118.222 C164.4,172,172,164.4,172,155.111V96h-16.889V155.111z M112.889,20v16.889h30.28L106.918,73.14l11.942,11.942l36.251-36.251v30.28 H172V20H112.889z" class="st7"/></g><g id="Low-_Res_Icon"><g id="Colored_1_"><path d="M233.333,21.333L218.248,6.248C222.099,2.393,227.424,0,233.333,0H308v21.333H233.333z M329.333,0v21.333 h38.249l-45.791,45.791l7.542,7.542L404,0H329.333z" class="st0"/><path d="M397.733,185.733l-15.067-15.067V96H404v74.667C404,176.533,401.6,181.867,397.733,185.733z M366.074,145.777 L328.741,96l-9.063,11.678l38.099,38.099H366.074z M404,74.667V0l-74.667,74.667l7.542,7.542l45.791-45.791v38.249H404z" class="st1"/><path d="M233.333,170.667l-15.086,15.086c-3.865-3.868-6.248-9.209-6.248-15.086V21.333 c0-5.877,2.382-11.218,6.248-15.086l15.086,15.086V170.667z M278.963,108.444l-29.037,37.333h8.297l28.269-28.269L278.963,108.444 z" class="st2"/><path d="M233.333,170.667h149.333l15.067,15.067c-3.867,3.867-9.2,6.267-15.067,6.267H233.333 c-5.91,0-11.234-2.393-15.086-6.248L233.333,170.667z M286.492,117.508l-28.269,28.269h99.555l-38.099-38.099l-19.974,25.738 L286.492,117.508z" class="st3"/><radialGradient id="Finish_3_" cx="212.002" cy="0" r="271.519" gradientUnits="userSpaceOnUse"><stop offset="0" stop-color="#FFF" stop-opacity=".1"/><stop offset="1" stop-color="#FFF" stop-opacity="0"/></radialGradient><path id="Finish_1_" d="M299.704,133.416L328.741,96l37.333,49.777H249.926l29.037-37.333L299.704,133.416z M382.667,170.667H233.333V21.333H308V0h-74.667C221.493,0,212,9.6,212,21.333v149.333C212,182.4,221.493,192,233.333,192h149.333 C394.4,192,404,182.4,404,170.667V96h-21.333V170.667z M329.333,0v21.333h38.249l-45.791,45.791l15.085,15.085l45.791-45.791 v38.249H404V0H329.333z" class="st8"/></g><path id="Monochrome" d="M299.704,133.416L328.741,96l37.333,49.777H249.926l29.037-37.333L299.704,133.416z M382.667,170.667H233.333V21.333H308V0h-74.667C221.493,0,212,9.6,212,21.333v149.333C212,182.4,221.493,192,233.333,192h149.333 C394.4,192,404,182.4,404,170.667V96h-21.333V170.667z M329.333,0v21.333h38.249l-45.791,45.791l15.085,15.085l45.791-45.791 v38.249H404V0H329.333z" class="st7"/></g></svg>